<mxfile host="app.diagrams.net" modified="2023-08-11T20:06:31.212Z" agent="Mozilla/5.0 (Windows NT 10.0; Win64; x64) AppleWebKit/537.36 (KHTML, like Gecko) Chrome/115.0.0.0 Safari/537.36" version="21.6.8" etag="EUnkY2yzOYn5AIR6Ri3_" type="github">
  <diagram name="PÃ¡gina-1" id="eVN_spZ8eZVuhAssFj-U">
    <mxGraphModel>
      <root>
        <mxCell id="0" />
        <mxCell id="1" parent="0" />
      </root>
    </mxGraphModel>
  </diagram>
</mxfile>
